solid v3d.csg
  facet normal 1.2246467991473532E-16 -0.0 -1.0
    outer loop
      vertex 2.0 34.0 2.4492935982947064E-16
      vertex 0.0 32.0 0.0
      vertex 0.0 34.0 0.0
    endloop
  endfacet
  facet normal 1.2246467991473532E-16 -0.0 -1.0
    outer loop
      vertex 0.0 34.0 0.0
      vertex 0.0 32.0 0.0
      vertex -8.1 32.0 -9.919639073093561E-16
    endloop
  endfacet
  facet normal 1.2246467991473532E-16 -0.0 -1.0
    outer loop
      vertex 0.0 32.0 0.0
      vertex 2.0 34.0 2.4492935982947064E-16
      vertex 0.0 23.0 0.0
    endloop
  endfacet
  facet normal 1.2246467991473532E-16 -0.0 -1.0
    outer loop
      vertex 0.0 34.0 0.0
      vertex -8.1 32.0 -9.919639073093561E-16
      vertex -8.1 34.0 -9.919639073093561E-16
    endloop
  endfacet
  facet normal 1.2246467991473532E-16 -0.0 -1.0
    outer loop
      vertex 0.0 23.0 0.0
      vertex 2.0 34.0 2.4492935982947064E-16
      vertex 0.0 21.0 0.0
    endloop
  endfacet
  facet normal 1.2246467991473532E-16 -0.0 -1.0
    outer loop
      vertex 2.0 34.0 2.4492935982947064E-16
      vertex 2.0 -2.0 2.4492935982947064E-16
      vertex 0.0 21.0 0.0
    endloop
  endfacet
  facet normal 1.2246467991473532E-16 -0.0 -1.0
    outer loop
      vertex 0.0 23.0 0.0
      vertex 0.0 21.0 0.0
      vertex -8.1 21.0 -9.919639073093561E-16
    endloop
  endfacet
  facet normal 1.2246467991473532E-16 -0.0 -1.0
    outer loop
      vertex 2.0 -2.0 2.4492935982947064E-16
      vertex 0.0 4.0 0.0
      vertex 0.0 21.0 0.0
    endloop
  endfacet
  facet normal 1.2246467991473532E-16 -0.0 -1.0
    outer loop
      vertex 0.0 23.0 0.0
      vertex -8.1 21.0 -9.919639073093561E-16
      vertex -8.1 23.0 -9.919639073093561E-16
    endloop
  endfacet
  facet normal 1.2246467991473532E-16 -0.0 -1.0
    outer loop
      vertex 2.0 -2.0 2.4492935982947064E-16
      vertex 0.0 2.0 0.0
      vertex 0.0 4.0 0.0
    endloop
  endfacet
  facet normal 1.2246467991473532E-16 -0.0 -1.0
    outer loop
      vertex 0.0 4.0 0.0
      vertex 0.0 2.0 0.0
      vertex -8.1 2.0 -9.919639073093561E-16
    endloop
  endfacet
  facet normal 1.2246467991473532E-16 -0.0 -1.0
    outer loop
      vertex 2.0 -2.0 2.4492935982947064E-16
      vertex 0.0 0.0 0.0
      vertex 0.0 2.0 0.0
    endloop
  endfacet
  facet normal 1.2246467991473532E-16 -0.0 -1.0
    outer loop
      vertex 0.0 4.0 0.0
      vertex -8.1 2.0 -9.919639073093561E-16
      vertex -8.1 4.0 -9.919639073093561E-16
    endloop
  endfacet
  facet normal 1.2246467991473532E-16 -0.0 -1.0
    outer loop
      vertex 0.0 0.0 0.0
      vertex 2.0 -2.0 2.4492935982947064E-16
      vertex -9.4 -2.0 -1.1511679911985121E-15
    endloop
  endfacet
  facet normal 1.2246467991473532E-16 -0.0 -1.0
    outer loop
      vertex -8.1 0.0 -9.919639073093561E-16
      vertex 0.0 0.0 0.0
      vertex -9.4 -2.0 -1.1511679911985121E-15
    endloop
  endfacet
  facet normal 1.2246467991473535E-16 -2.261642503500605E-32 -1.0
    outer loop
      vertex -9.4 -2.0 -1.1511679911985121E-15
      vertex -8.8 0.6 -1.077689183249671E-15
      vertex -8.1 0.0 -9.919639073093561E-16
    endloop
  endfacet
  facet normal 1.224646799147354E-16 8.987673073807091E-32 -1.0
    outer loop
      vertex -8.8 0.6 -1.077689183249671E-15
      vertex -8.4 0.6 -1.0287033112837768E-15
      vertex -8.1 0.0 -9.919639073093561E-16
    endloop
  endfacet
  facet normal -0.0 -1.0 0.0
    outer loop
      vertex 2.0 -2.0 2.4492935982947064E-16
      vertex 1.9999999999999951 -2.0 40.0
      vertex -9.400000000000004 -2.0 40.0
    endloop
  endfacet
  facet normal -0.0 -1.0 0.0
    outer loop
      vertex 2.0 -2.0 2.4492935982947064E-16
      vertex -9.400000000000004 -2.0 40.0
      vertex -9.4 -2.0 -1.1511679911985121E-15
    endloop
  endfacet
  facet normal -0.9743911956946202 0.22485950669875704 -1.7308664647235265E-16
    outer loop
      vertex -9.4 -2.0 -1.1511679911985121E-15
      vertex -9.400000000000004 -2.0 40.0
      vertex -8.800000000000008 0.6 40.0
    endloop
  endfacet
  facet normal -0.9743911956946202 0.22485950669875704 -1.7308664647235265E-16
    outer loop
      vertex -9.4 -2.0 -1.1511679911985121E-15
      vertex -8.800000000000008 0.6 40.0
      vertex -8.8 0.6 -1.077689183249671E-15
    endloop
  endfacet
  facet normal -0.0 1.0 -0.0
    outer loop
      vertex -8.8 0.6 -1.077689183249671E-15
      vertex -8.800000000000008 0.6 40.0
      vertex -8.400000000000004 0.6 40.0
    endloop
  endfacet
  facet normal -0.0 1.0 -0.0
    outer loop
      vertex -8.8 0.6 -1.077689183249671E-15
      vertex -8.400000000000004 0.6 40.0
      vertex -8.4 0.6 -1.0287033112837768E-15
    endloop
  endfacet
  facet normal 0.8944271909999155 0.4472135954999588 7.94410929039127E-17
    outer loop
      vertex -8.4 0.6 -1.0287033112837768E-15
      vertex -8.400000000000004 0.6 40.0
      vertex -8.100000000000003 0.0 40.0
    endloop
  endfacet
  facet normal 0.8944271909999155 0.4472135954999588 7.94410929039127E-17
    outer loop
      vertex -8.4 0.6 -1.0287033112837768E-15
      vertex -8.100000000000003 0.0 40.0
      vertex -8.1 0.0 -9.919639073093561E-16
    endloop
  endfacet
  facet normal -0.0 1.0 -0.0
    outer loop
      vertex -8.1 0.0 -9.919639073093561E-16
      vertex -8.100000000000003 0.0 40.0
      vertex -4.898587196589413E-15 0.0 40.0
    endloop
  endfacet
  facet normal -0.0 1.0 -0.0
    outer loop
      vertex -8.1 0.0 -9.919639073093561E-16
      vertex -4.898587196589413E-15 0.0 40.0
      vertex 0.0 0.0 0.0
    endloop
  endfacet
  facet normal -1.0 -0.0 -1.2246467991473532E-16
    outer loop
      vertex 0.0 0.0 0.0
      vertex -4.898587196589413E-15 0.0 40.0
      vertex -4.898587196589413E-15 2.0 40.0
    endloop
  endfacet
  facet normal -1.0 -0.0 -1.2246467991473532E-16
    outer loop
      vertex 0.0 0.0 0.0
      vertex -4.898587196589413E-15 2.0 40.0
      vertex 0.0 2.0 0.0
    endloop
  endfacet
  facet normal -0.0 -1.0 0.0
    outer loop
      vertex 0.0 2.0 0.0
      vertex -4.898587196589413E-15 2.0 40.0
      vertex -8.100000000000003 2.0 40.0
    endloop
  endfacet
  facet normal -0.0 -1.0 0.0
    outer loop
      vertex 0.0 2.0 0.0
      vertex -8.100000000000003 2.0 40.0
      vertex -8.1 2.0 -9.919639073093561E-16
    endloop
  endfacet
  facet normal -1.0 -0.0 -8.881784197001253E-17
    outer loop
      vertex -8.1 2.0 -9.919639073093561E-16
      vertex -8.100000000000003 2.0 40.0
      vertex -8.100000000000003 4.0 40.0
    endloop
  endfacet
  facet normal -1.0 -0.0 -8.881784197001253E-17
    outer loop
      vertex -8.1 2.0 -9.919639073093561E-16
      vertex -8.100000000000003 4.0 40.0
      vertex -8.1 4.0 -9.919639073093561E-16
    endloop
  endfacet
  facet normal -0.0 1.0 -0.0
    outer loop
      vertex -8.1 4.0 -9.919639073093561E-16
      vertex -8.100000000000003 4.0 40.0
      vertex -4.898587196589413E-15 4.0 40.0
    endloop
  endfacet
  facet normal -0.0 1.0 -0.0
    outer loop
      vertex -8.1 4.0 -9.919639073093561E-16
      vertex -4.898587196589413E-15 4.0 40.0
      vertex 0.0 4.0 0.0
    endloop
  endfacet
  facet normal -1.0 -0.0 -1.2246467991473535E-16
    outer loop
      vertex 0.0 4.0 0.0
      vertex -4.898587196589413E-15 4.0 40.0
      vertex -4.898587196589413E-15 21.0 40.0
    endloop
  endfacet
  facet normal -1.0 -0.0 -1.2246467991473535E-16
    outer loop
      vertex 0.0 4.0 0.0
      vertex -4.898587196589413E-15 21.0 40.0
      vertex 0.0 21.0 0.0
    endloop
  endfacet
  facet normal -0.0 -1.0 0.0
    outer loop
      vertex 0.0 21.0 0.0
      vertex -4.898587196589413E-15 21.0 40.0
      vertex -8.100000000000003 21.0 40.0
    endloop
  endfacet
  facet normal -0.0 -1.0 0.0
    outer loop
      vertex 0.0 21.0 0.0
      vertex -8.100000000000003 21.0 40.0
      vertex -8.1 21.0 -9.919639073093561E-16
    endloop
  endfacet
  facet normal -1.0 -0.0 -8.881784197001253E-17
    outer loop
      vertex -8.1 21.0 -9.919639073093561E-16
      vertex -8.100000000000003 21.0 40.0
      vertex -8.100000000000003 23.0 40.0
    endloop
  endfacet
  facet normal -1.0 -0.0 -8.881784197001253E-17
    outer loop
      vertex -8.1 21.0 -9.919639073093561E-16
      vertex -8.100000000000003 23.0 40.0
      vertex -8.1 23.0 -9.919639073093561E-16
    endloop
  endfacet
  facet normal -0.0 1.0 -0.0
    outer loop
      vertex -8.1 23.0 -9.919639073093561E-16
      vertex -8.100000000000003 23.0 40.0
      vertex -4.898587196589413E-15 23.0 40.0
    endloop
  endfacet
  facet normal -0.0 1.0 -0.0
    outer loop
      vertex -8.1 23.0 -9.919639073093561E-16
      vertex -4.898587196589413E-15 23.0 40.0
      vertex 0.0 23.0 0.0
    endloop
  endfacet
  facet normal -1.0 -0.0 -1.2246467991473532E-16
    outer loop
      vertex 0.0 23.0 0.0
      vertex -4.898587196589413E-15 23.0 40.0
      vertex -4.898587196589413E-15 32.0 40.0
    endloop
  endfacet
  facet normal -1.0 -0.0 -1.2246467991473532E-16
    outer loop
      vertex 0.0 23.0 0.0
      vertex -4.898587196589413E-15 32.0 40.0
      vertex 0.0 32.0 0.0
    endloop
  endfacet
  facet normal -0.0 -1.0 0.0
    outer loop
      vertex 0.0 32.0 0.0
      vertex -4.898587196589413E-15 32.0 40.0
      vertex -8.100000000000003 32.0 40.0
    endloop
  endfacet
  facet normal -0.0 -1.0 0.0
    outer loop
      vertex 0.0 32.0 0.0
      vertex -8.100000000000003 32.0 40.0
      vertex -8.1 32.0 -9.919639073093561E-16
    endloop
  endfacet
  facet normal -1.0 -0.0 -8.881784197001253E-17
    outer loop
      vertex -8.1 32.0 -9.919639073093561E-16
      vertex -8.100000000000003 32.0 40.0
      vertex -8.100000000000003 34.0 40.0
    endloop
  endfacet
  facet normal -1.0 -0.0 -8.881784197001253E-17
    outer loop
      vertex -8.1 32.0 -9.919639073093561E-16
      vertex -8.100000000000003 34.0 40.0
      vertex -8.1 34.0 -9.919639073093561E-16
    endloop
  endfacet
  facet normal -0.0 1.0 -0.0
    outer loop
      vertex -8.1 34.0 -9.919639073093561E-16
      vertex -8.100000000000003 34.0 40.0
      vertex -4.898587196589413E-15 34.0 40.0
    endloop
  endfacet
  facet normal -0.0 1.0 -0.0
    outer loop
      vertex -8.1 34.0 -9.919639073093561E-16
      vertex -4.898587196589413E-15 34.0 40.0
      vertex 0.0 34.0 0.0
    endloop
  endfacet
  facet normal -0.0 1.0 -0.0
    outer loop
      vertex 0.0 34.0 0.0
      vertex -4.898587196589413E-15 34.0 40.0
      vertex 1.9999999999999951 34.0 40.0
    endloop
  endfacet
  facet normal -0.0 1.0 -0.0
    outer loop
      vertex 0.0 34.0 0.0
      vertex 1.9999999999999951 34.0 40.0
      vertex 2.0 34.0 2.4492935982947064E-16
    endloop
  endfacet
  facet normal 1.0 -0.0 1.2212453270876723E-16
    outer loop
      vertex 2.0 34.0 2.4492935982947064E-16
      vertex 1.9999999999999951 34.0 40.0
      vertex 1.9999999999999951 -2.0 40.0
    endloop
  endfacet
  facet normal 1.0 -0.0 1.2212453270876723E-16
    outer loop
      vertex 2.0 34.0 2.4492935982947064E-16
      vertex 1.9999999999999951 -2.0 40.0
      vertex 2.0 -2.0 2.4492935982947064E-16
    endloop
  endfacet
  facet normal 0.0 -0.0 1.0
    outer loop
      vertex -4.898587196589413E-15 34.0 40.0
      vertex -4.898587196589413E-15 32.0 40.0
      vertex 1.9999999999999951 34.0 40.0
    endloop
  endfacet
  facet normal -0.0 0.0 1.0
    outer loop
      vertex -8.100000000000003 32.0 40.0
      vertex -4.898587196589413E-15 32.0 40.0
      vertex -4.898587196589413E-15 34.0 40.0
    endloop
  endfacet
  facet normal -0.0 -0.0 1.0
    outer loop
      vertex -4.898587196589413E-15 23.0 40.0
      vertex 1.9999999999999951 34.0 40.0
      vertex -4.898587196589413E-15 32.0 40.0
    endloop
  endfacet
  facet normal 0.0 -0.0 1.0
    outer loop
      vertex -8.100000000000003 34.0 40.0
      vertex -8.100000000000003 32.0 40.0
      vertex -4.898587196589413E-15 34.0 40.0
    endloop
  endfacet
  facet normal -0.0 -0.0 1.0
    outer loop
      vertex -4.898587196589413E-15 21.0 40.0
      vertex 1.9999999999999951 34.0 40.0
      vertex -4.898587196589413E-15 23.0 40.0
    endloop
  endfacet
  facet normal -0.0 0.0 1.0
    outer loop
      vertex -4.898587196589413E-15 21.0 40.0
      vertex 1.9999999999999951 -2.0 40.0
      vertex 1.9999999999999951 34.0 40.0
    endloop
  endfacet
  facet normal -0.0 0.0 1.0
    outer loop
      vertex -8.100000000000003 21.0 40.0
      vertex -4.898587196589413E-15 21.0 40.0
      vertex -4.898587196589413E-15 23.0 40.0
    endloop
  endfacet
  facet normal -0.0 -0.0 1.0
    outer loop
      vertex -4.898587196589413E-15 21.0 40.0
      vertex -4.898587196589413E-15 4.0 40.0
      vertex 1.9999999999999951 -2.0 40.0
    endloop
  endfacet
  facet normal 0.0 -0.0 1.0
    outer loop
      vertex -8.100000000000003 23.0 40.0
      vertex -8.100000000000003 21.0 40.0
      vertex -4.898587196589413E-15 23.0 40.0
    endloop
  endfacet
  facet normal -0.0 -0.0 1.0
    outer loop
      vertex -4.898587196589413E-15 4.0 40.0
      vertex -4.898587196589413E-15 2.0 40.0
      vertex 1.9999999999999951 -2.0 40.0
    endloop
  endfacet
  facet normal -0.0 0.0 1.0
    outer loop
      vertex -8.100000000000003 2.0 40.0
      vertex -4.898587196589413E-15 2.0 40.0
      vertex -4.898587196589413E-15 4.0 40.0
    endloop
  endfacet
  facet normal -0.0 -0.0 1.0
    outer loop
      vertex -4.898587196589413E-15 2.0 40.0
      vertex -4.898587196589413E-15 0.0 40.0
      vertex 1.9999999999999951 -2.0 40.0
    endloop
  endfacet
  facet normal 0.0 -0.0 1.0
    outer loop
      vertex -8.100000000000003 4.0 40.0
      vertex -8.100000000000003 2.0 40.0
      vertex -4.898587196589413E-15 4.0 40.0
    endloop
  endfacet
  facet normal -0.0 0.0 1.0
    outer loop
      vertex -9.400000000000004 -2.0 40.0
      vertex 1.9999999999999951 -2.0 40.0
      vertex -4.898587196589413E-15 0.0 40.0
    endloop
  endfacet
  facet normal -0.0 0.0 1.0
    outer loop
      vertex -9.400000000000004 -2.0 40.0
      vertex -4.898587196589413E-15 0.0 40.0
      vertex -8.100000000000003 0.0 40.0
    endloop
  endfacet
  facet normal -0.0 -0.0 1.0
    outer loop
      vertex -8.100000000000003 0.0 40.0
      vertex -8.800000000000008 0.6 40.0
      vertex -9.400000000000004 -2.0 40.0
    endloop
  endfacet
  facet normal -0.0 -0.0 1.0
    outer loop
      vertex -8.100000000000003 0.0 40.0
      vertex -8.400000000000004 0.6 40.0
      vertex -8.800000000000008 0.6 40.0
    endloop
  endfacet
endsolid v3d.csg
